<svg xmlns="http://www.w3.org/2000/svg" version="1.1" width="253" height="253" viewBox="0 0 253 253">
  <rect x="0" y="0" width="253" height="253" fill="#ffffff"/>
  <rect x="6" y="6" width="24" height="24" fill="#A8DADC" stroke="none"/>
  <rect x="30" y="6" width="24" height="24" fill="#A8DADC" stroke="none"/>
  <rect x="54" y="6" width="24" height="24" fill="#A8DADC" stroke="none"/>
  <rect x="78" y="6" width="24" height="24" fill="#FFFFFF" stroke="none"/>
  <rect x="102" y="6" width="24" height="24" fill="#FFFFFF" stroke="none"/>
  <rect x="126" y="6" width="24" height="24" fill="#FFCAD4" stroke="none"/>
  <rect x="150" y="6" width="24" height="24" fill="#FFFFFF" stroke="none"/>
  <rect x="174" y="6" width="24" height="24" fill="#FFCAD4" stroke="none"/>
  <rect x="198" y="6" width="24" height="24" fill="#A8DADC" stroke="none"/>
  <rect x="222" y="6" width="24" height="24" fill="#FFCAD4" stroke="none"/>
  <rect x="6" y="30" width="24" height="24" fill="#FFFFFF" stroke="none"/>
  <rect x="30" y="30" width="24" height="24" fill="#A8DADC" stroke="none"/>
  <rect x="54" y="30" width="24" height="24" fill="#A8DADC" stroke="none"/>
  <rect x="78" y="30" width="24" height="24" fill="#A8DADC" stroke="none"/>
  <rect x="102" y="30" width="24" height="24" fill="#FFFFFF" stroke="none"/>
  <rect x="126" y="30" width="24" height="24" fill="#FFFFFF" stroke="none"/>
  <rect x="150" y="30" width="24" height="24" fill="#FFCAD4" stroke="none"/>
  <rect x="174" y="30" width="24" height="24" fill="#FFFFFF" stroke="none"/>
  <rect x="198" y="30" width="24" height="24" fill="#FFCAD4" stroke="none"/>
  <rect x="222" y="30" width="24" height="24" fill="#A8DADC" stroke="none"/>
  <rect x="6" y="54" width="24" height="24" fill="#FFFFFF" stroke="none"/>
  <rect x="30" y="54" width="24" height="24" fill="#FFFFFF" stroke="none"/>
  <rect x="54" y="54" width="24" height="24" fill="#A8DADC" stroke="none"/>
  <rect x="78" y="54" width="24" height="24" fill="#FFFFFF" stroke="none"/>
  <rect x="102" y="54" width="24" height="24" fill="#A8DADC" stroke="none"/>
  <rect x="126" y="54" width="24" height="24" fill="#FFCAD4" stroke="none"/>
  <rect x="150" y="54" width="24" height="24" fill="#A8DADC" stroke="none"/>
  <rect x="174" y="54" width="24" height="24" fill="#A8DADC" stroke="none"/>
  <rect x="198" y="54" width="24" height="24" fill="#FFCAD4" stroke="none"/>
  <rect x="222" y="54" width="24" height="24" fill="#FFFFFF" stroke="none"/>
  <rect x="6" y="78" width="24" height="24" fill="#FFFFFF" stroke="none"/>
  <rect x="30" y="78" width="24" height="24" fill="#FFFFFF" stroke="none"/>
  <rect x="54" y="78" width="24" height="24" fill="#FFFFFF" stroke="none"/>
  <rect x="78" y="78" width="24" height="24" fill="#A8DADC" stroke="none"/>
  <rect x="102" y="78" width="24" height="24" fill="#A8DADC" stroke="none"/>
  <rect x="126" y="78" width="24" height="24" fill="#FFCAD4" stroke="none"/>
  <rect x="150" y="78" width="24" height="24" fill="#FFFFFF" stroke="none"/>
  <rect x="174" y="78" width="24" height="24" fill="#A8DADC" stroke="none"/>
  <rect x="198" y="78" width="24" height="24" fill="#FFFFFF" stroke="none"/>
  <rect x="222" y="78" width="24" height="24" fill="#A8DADC" stroke="none"/>
  <rect x="6" y="102" width="24" height="24" fill="#FFFFFF" stroke="none"/>
  <rect x="30" y="102" width="24" height="24" fill="#FFFFFF" stroke="none"/>
  <rect x="54" y="102" width="24" height="24" fill="#FFFFFF" stroke="none"/>
  <rect x="78" y="102" width="24" height="24" fill="#FFFFFF" stroke="none"/>
  <rect x="102" y="102" width="24" height="24" fill="#A8DADC" stroke="none"/>
  <rect x="126" y="102" width="24" height="24" fill="#A8DADC" stroke="none"/>
  <rect x="150" y="102" width="24" height="24" fill="#FFCAD4" stroke="none"/>
  <rect x="174" y="102" width="24" height="24" fill="#FFFFFF" stroke="none"/>
  <rect x="198" y="102" width="24" height="24" fill="#A8DADC" stroke="none"/>
  <rect x="222" y="102" width="24" height="24" fill="#FFFFFF" stroke="none"/>
  <rect x="6" y="126" width="24" height="24" fill="#FFFFFF" stroke="none"/>
  <rect x="30" y="126" width="24" height="24" fill="#FFFFFF" stroke="none"/>
  <rect x="54" y="126" width="24" height="24" fill="#FFFFFF" stroke="none"/>
  <rect x="78" y="126" width="24" height="24" fill="#FFFFFF" stroke="none"/>
  <rect x="102" y="126" width="24" height="24" fill="#FFFFFF" stroke="none"/>
  <rect x="126" y="126" width="24" height="24" fill="#A8DADC" stroke="none"/>
  <rect x="150" y="126" width="24" height="24" fill="#FFFFFF" stroke="none"/>
  <rect x="174" y="126" width="24" height="24" fill="#FFCAD4" stroke="none"/>
  <rect x="198" y="126" width="24" height="24" fill="#A8DADC" stroke="none"/>
  <rect x="222" y="126" width="24" height="24" fill="#FFFFFF" stroke="none"/>
  <rect x="6" y="150" width="24" height="24" fill="#FFFFFF" stroke="none"/>
  <rect x="30" y="150" width="24" height="24" fill="#FFFFFF" stroke="none"/>
  <rect x="54" y="150" width="24" height="24" fill="#FFFFFF" stroke="none"/>
  <rect x="78" y="150" width="24" height="24" fill="#FFFFFF" stroke="none"/>
  <rect x="102" y="150" width="24" height="24" fill="#FFFFFF" stroke="none"/>
  <rect x="126" y="150" width="24" height="24" fill="#FFFFFF" stroke="none"/>
  <rect x="150" y="150" width="24" height="24" fill="#A8DADC" stroke="none"/>
  <rect x="174" y="150" width="24" height="24" fill="#A8DADC" stroke="none"/>
  <rect x="198" y="150" width="24" height="24" fill="#FFFFFF" stroke="none"/>
  <rect x="222" y="150" width="24" height="24" fill="#FFFFFF" stroke="none"/>
  <rect x="6" y="174" width="24" height="24" fill="#FFFFFF" stroke="none"/>
  <rect x="30" y="174" width="24" height="24" fill="#FFFFFF" stroke="none"/>
  <rect x="54" y="174" width="24" height="24" fill="#FFFFFF" stroke="none"/>
  <rect x="78" y="174" width="24" height="24" fill="#FFFFFF" stroke="none"/>
  <rect x="102" y="174" width="24" height="24" fill="#FFFFFF" stroke="none"/>
  <rect x="126" y="174" width="24" height="24" fill="#FFFFFF" stroke="none"/>
  <rect x="150" y="174" width="24" height="24" fill="#FFFFFF" stroke="none"/>
  <rect x="174" y="174" width="24" height="24" fill="#A8DADC" stroke="none"/>
  <rect x="198" y="174" width="24" height="24" fill="#A8DADC" stroke="none"/>
  <rect x="222" y="174" width="24" height="24" fill="#FFFFFF" stroke="none"/>
  <rect x="6" y="198" width="24" height="24" fill="#FFFFFF" stroke="none"/>
  <rect x="30" y="198" width="24" height="24" fill="#FFFFFF" stroke="none"/>
  <rect x="54" y="198" width="24" height="24" fill="#FFFFFF" stroke="none"/>
  <rect x="78" y="198" width="24" height="24" fill="#FFFFFF" stroke="none"/>
  <rect x="102" y="198" width="24" height="24" fill="#FFFFFF" stroke="none"/>
  <rect x="126" y="198" width="24" height="24" fill="#FFFFFF" stroke="none"/>
  <rect x="150" y="198" width="24" height="24" fill="#FFFFFF" stroke="none"/>
  <rect x="174" y="198" width="24" height="24" fill="#FFFFFF" stroke="none"/>
  <rect x="198" y="198" width="24" height="24" fill="#A8DADC" stroke="none"/>
  <rect x="222" y="198" width="24" height="24" fill="#FFFFFF" stroke="none"/>
  <rect x="6" y="222" width="24" height="24" fill="#FFFFFF" stroke="none"/>
  <rect x="30" y="222" width="24" height="24" fill="#FFFFFF" stroke="none"/>
  <rect x="54" y="222" width="24" height="24" fill="#FFFFFF" stroke="none"/>
  <rect x="78" y="222" width="24" height="24" fill="#FFFFFF" stroke="none"/>
  <rect x="102" y="222" width="24" height="24" fill="#FFFFFF" stroke="none"/>
  <rect x="126" y="222" width="24" height="24" fill="#FFFFFF" stroke="none"/>
  <rect x="150" y="222" width="24" height="24" fill="#FFFFFF" stroke="none"/>
  <rect x="174" y="222" width="24" height="24" fill="#FFFFFF" stroke="none"/>
  <rect x="198" y="222" width="24" height="24" fill="#FFFFFF" stroke="none"/>
  <rect x="222" y="222" width="24" height="24" fill="#A8DADC" stroke="none"/>
  <line x1="6" y1="6" x2="246" y2="6" stroke="#B8B8B8" stroke-width="1"/>
  <line x1="6" y1="30" x2="246" y2="30" stroke="#B8B8B8" stroke-width="1"/>
  <line x1="6" y1="54" x2="246" y2="54" stroke="#B8B8B8" stroke-width="1"/>
  <line x1="6" y1="78" x2="246" y2="78" stroke="#B8B8B8" stroke-width="1"/>
  <line x1="6" y1="102" x2="246" y2="102" stroke="#B8B8B8" stroke-width="1"/>
  <line x1="6" y1="126" x2="246" y2="126" stroke="#B8B8B8" stroke-width="1"/>
  <line x1="6" y1="150" x2="246" y2="150" stroke="#B8B8B8" stroke-width="1"/>
  <line x1="6" y1="174" x2="246" y2="174" stroke="#B8B8B8" stroke-width="1"/>
  <line x1="6" y1="198" x2="246" y2="198" stroke="#B8B8B8" stroke-width="1"/>
  <line x1="6" y1="222" x2="246" y2="222" stroke="#B8B8B8" stroke-width="1"/>
  <line x1="6" y1="246" x2="246" y2="246" stroke="#B8B8B8" stroke-width="1"/>
  <line x1="6" y1="6" x2="6" y2="246" stroke="#B8B8B8" stroke-width="1"/>
  <line x1="30" y1="6" x2="30" y2="246" stroke="#B8B8B8" stroke-width="1"/>
  <line x1="54" y1="6" x2="54" y2="246" stroke="#B8B8B8" stroke-width="1"/>
  <line x1="78" y1="6" x2="78" y2="246" stroke="#B8B8B8" stroke-width="1"/>
  <line x1="102" y1="6" x2="102" y2="246" stroke="#B8B8B8" stroke-width="1"/>
  <line x1="126" y1="6" x2="126" y2="246" stroke="#B8B8B8" stroke-width="1"/>
  <line x1="150" y1="6" x2="150" y2="246" stroke="#B8B8B8" stroke-width="1"/>
  <line x1="174" y1="6" x2="174" y2="246" stroke="#B8B8B8" stroke-width="1"/>
  <line x1="198" y1="6" x2="198" y2="246" stroke="#B8B8B8" stroke-width="1"/>
  <line x1="222" y1="6" x2="222" y2="246" stroke="#B8B8B8" stroke-width="1"/>
  <line x1="246" y1="6" x2="246" y2="246" stroke="#B8B8B8" stroke-width="1"/>
  <rect x="6" y="6" width="240" height="240" fill="none" stroke="#888888" stroke-width="1.2"/>
</svg>
