<svg xmlns="http://www.w3.org/2000/svg" version="1.1" width="920" height="580" viewBox="0 0 920 580">
<rect x="0" y="0" width="920" height="580" fill="#ffffff"/>
<rect x="90.000" y="55.000" width="800.000" height="440.000" fill="#fbfbfb" stroke="#cccccc" stroke-width="1"/>
<text x="460.000" y="28.000" font-family="Arial, Helvetica, sans-serif" font-size="18" text-anchor="middle" fill="#222222">5D Star vs. Generalized L2 discrepancies (Joe &amp; Kuo Sobol)</text>
<line x1="90.000" y1="55.000" x2="90.000" y2="495.000" stroke="#e0e0e0" stroke-width="1.000" stroke-opacity="1.000" />
<line x1="190.000" y1="55.000" x2="190.000" y2="495.000" stroke="#e0e0e0" stroke-width="1.000" stroke-opacity="1.000" />
<line x1="290.000" y1="55.000" x2="290.000" y2="495.000" stroke="#e0e0e0" stroke-width="1.000" stroke-opacity="1.000" />
<line x1="390.000" y1="55.000" x2="390.000" y2="495.000" stroke="#e0e0e0" stroke-width="1.000" stroke-opacity="1.000" />
<line x1="490.000" y1="55.000" x2="490.000" y2="495.000" stroke="#e0e0e0" stroke-width="1.000" stroke-opacity="1.000" />
<line x1="590.000" y1="55.000" x2="590.000" y2="495.000" stroke="#e0e0e0" stroke-width="1.000" stroke-opacity="1.000" />
<line x1="690.000" y1="55.000" x2="690.000" y2="495.000" stroke="#e0e0e0" stroke-width="1.000" stroke-opacity="1.000" />
<line x1="790.000" y1="55.000" x2="790.000" y2="495.000" stroke="#e0e0e0" stroke-width="1.000" stroke-opacity="1.000" />
<line x1="890.000" y1="55.000" x2="890.000" y2="495.000" stroke="#e0e0e0" stroke-width="1.000" stroke-opacity="1.000" />
<line x1="90.000" y1="390.186" x2="890.000" y2="390.186" stroke="#e0e0e0" stroke-width="1.000" stroke-opacity="1.000" />
<line x1="90.000" y1="239.771" x2="890.000" y2="239.771" stroke="#e0e0e0" stroke-width="1.000" stroke-opacity="1.000" />
<line x1="90.000" y1="89.357" x2="890.000" y2="89.357" stroke="#e0e0e0" stroke-width="1.000" stroke-opacity="1.000" />
<line x1="90.000" y1="495.000" x2="890.000" y2="495.000" stroke="#333333" stroke-width="1.400" stroke-opacity="1.000" />
<line x1="90.000" y1="55.000" x2="90.000" y2="495.000" stroke="#333333" stroke-width="1.400" stroke-opacity="1.000" />
<line x1="90.000" y1="495.000" x2="90.000" y2="500.000" stroke="#333333" stroke-width="1.000" stroke-opacity="1.000" />
<text x="90.000" y="517.000" font-family="Arial, Helvetica, sans-serif" font-size="12" text-anchor="middle" fill="#333333">2</text>
<line x1="190.000" y1="495.000" x2="190.000" y2="500.000" stroke="#333333" stroke-width="1.000" stroke-opacity="1.000" />
<text x="190.000" y="517.000" font-family="Arial, Helvetica, sans-serif" font-size="12" text-anchor="middle" fill="#333333">4</text>
<line x1="290.000" y1="495.000" x2="290.000" y2="500.000" stroke="#333333" stroke-width="1.000" stroke-opacity="1.000" />
<text x="290.000" y="517.000" font-family="Arial, Helvetica, sans-serif" font-size="12" text-anchor="middle" fill="#333333">8</text>
<line x1="390.000" y1="495.000" x2="390.000" y2="500.000" stroke="#333333" stroke-width="1.000" stroke-opacity="1.000" />
<text x="390.000" y="517.000" font-family="Arial, Helvetica, sans-serif" font-size="12" text-anchor="middle" fill="#333333">16</text>
<line x1="490.000" y1="495.000" x2="490.000" y2="500.000" stroke="#333333" stroke-width="1.000" stroke-opacity="1.000" />
<text x="490.000" y="517.000" font-family="Arial, Helvetica, sans-serif" font-size="12" text-anchor="middle" fill="#333333">32</text>
<line x1="590.000" y1="495.000" x2="590.000" y2="500.000" stroke="#333333" stroke-width="1.000" stroke-opacity="1.000" />
<text x="590.000" y="517.000" font-family="Arial, Helvetica, sans-serif" font-size="12" text-anchor="middle" fill="#333333">64</text>
<line x1="690.000" y1="495.000" x2="690.000" y2="500.000" stroke="#333333" stroke-width="1.000" stroke-opacity="1.000" />
<text x="690.000" y="517.000" font-family="Arial, Helvetica, sans-serif" font-size="12" text-anchor="middle" fill="#333333">128</text>
<line x1="790.000" y1="495.000" x2="790.000" y2="500.000" stroke="#333333" stroke-width="1.000" stroke-opacity="1.000" />
<text x="790.000" y="517.000" font-family="Arial, Helvetica, sans-serif" font-size="12" text-anchor="middle" fill="#333333">256</text>
<line x1="890.000" y1="495.000" x2="890.000" y2="500.000" stroke="#333333" stroke-width="1.000" stroke-opacity="1.000" />
<text x="890.000" y="517.000" font-family="Arial, Helvetica, sans-serif" font-size="12" text-anchor="middle" fill="#333333">512</text>
<line x1="85.000" y1="390.186" x2="90.000" y2="390.186" stroke="#333333" stroke-width="1.000" stroke-opacity="1.000" />
<text x="80.000" y="394.186" font-family="Arial, Helvetica, sans-serif" font-size="12" text-anchor="end" fill="#333333">1e-2</text>
<line x1="85.000" y1="239.771" x2="90.000" y2="239.771" stroke="#333333" stroke-width="1.000" stroke-opacity="1.000" />
<text x="80.000" y="243.771" font-family="Arial, Helvetica, sans-serif" font-size="12" text-anchor="end" fill="#333333">1e-1</text>
<line x1="85.000" y1="89.357" x2="90.000" y2="89.357" stroke="#333333" stroke-width="1.000" stroke-opacity="1.000" />
<text x="80.000" y="93.357" font-family="Arial, Helvetica, sans-serif" font-size="12" text-anchor="end" fill="#333333">1e0</text>
<text x="490.000" y="552.000" font-family="Arial, Helvetica, sans-serif" font-size="14" text-anchor="middle" fill="#222222">Number of points N</text>
<text x="24" y="275.000" font-family="Arial, Helvetica, sans-serif" font-size="14" text-anchor="middle" fill="#222222" transform="rotate(-90 24 275.000)">Discrepancy value</text>
<polyline fill="none" stroke="#D36C6C" stroke-width="2.000" stroke-opacity="0.900" stroke-dasharray="7 5" points="90.000,102.420 96.299,103.846 102.598,105.273 108.898,106.699 115.197,108.125 121.496,109.551 127.795,110.977 134.094,112.403 140.394,113.829 146.693,115.255 152.992,116.682 159.291,118.108 165.591,119.534 171.890,120.960 178.189,122.386 184.488,123.812 190.787,125.238 197.087,126.664 203.386,128.090 209.685,129.517 215.984,130.943 222.283,132.369 228.583,133.795 234.882,135.221 241.181,136.647 247.480,138.073 253.780,139.499 260.079,140.926 266.378,142.352 272.677,143.778 278.976,145.204 285.276,146.630 291.575,148.056 297.874,149.482 304.173,150.908 310.472,152.335 316.772,153.761 323.071,155.187 329.370,156.613 335.669,158.039 341.969,159.465 348.268,160.891 354.567,162.317 360.866,163.744 367.165,165.170 373.465,166.596 379.764,168.022 386.063,169.448 392.362,170.874 398.661,172.300 404.961,173.726 411.260,175.153 417.559,176.579 423.858,178.005 430.157,179.431 436.457,180.857 442.756,182.283 449.055,183.709 455.354,185.135 461.654,186.561 467.953,187.988 474.252,189.414 480.551,190.840 486.850,192.266 493.150,193.692 499.449,195.118 505.748,196.544 512.047,197.970 518.346,199.397 524.646,200.823 530.945,202.249 537.244,203.675 543.543,205.101 549.843,206.527 556.142,207.953 562.441,209.379 568.740,210.806 575.039,212.232 581.339,213.658 587.638,215.084 593.937,216.510 600.236,217.936 606.535,219.362 612.835,220.788 619.134,222.215 625.433,223.641 631.732,225.067 638.031,226.493 644.331,227.919 650.630,229.345 656.929,230.771 663.228,232.197 669.528,233.623 675.827,235.050 682.126,236.476 688.425,237.902 694.724,239.328 701.024,240.754 707.323,242.180 713.622,243.606 719.921,245.032 726.220,246.459 732.520,247.885 738.819,249.311 745.118,250.737 751.417,252.163 757.717,253.589 764.016,255.015 770.315,256.441 776.614,257.868 782.913,259.294 789.213,260.720 795.512,262.146 801.811,263.572 808.110,264.998 814.409,266.424 820.709,267.850 827.008,269.277 833.307,270.703 839.606,272.129 845.906,273.555 852.205,274.981 858.504,276.407 864.803,277.833 871.102,279.259 877.402,280.685 883.701,282.112 890.000,283.538 "/>
<polyline fill="none" stroke="#6CA87A" stroke-width="2.000" stroke-opacity="0.900" stroke-dasharray="7 5" points="90.000,102.420 96.299,105.273 102.598,108.125 108.898,110.977 115.197,113.829 121.496,116.682 127.795,119.534 134.094,122.386 140.394,125.238 146.693,128.090 152.992,130.943 159.291,133.795 165.591,136.647 171.890,139.499 178.189,142.352 184.488,145.204 190.787,148.056 197.087,150.908 203.386,153.761 209.685,156.613 215.984,159.465 222.283,162.317 228.583,165.170 234.882,168.022 241.181,170.874 247.480,173.726 253.780,176.579 260.079,179.431 266.378,182.283 272.677,185.135 278.976,187.988 285.276,190.840 291.575,193.692 297.874,196.544 304.173,199.397 310.472,202.249 316.772,205.101 323.071,207.953 329.370,210.806 335.669,213.658 341.969,216.510 348.268,219.362 354.567,222.215 360.866,225.067 367.165,227.919 373.465,230.771 379.764,233.623 386.063,236.476 392.362,239.328 398.661,242.180 404.961,245.032 411.260,247.885 417.559,250.737 423.858,253.589 430.157,256.441 436.457,259.294 442.756,262.146 449.055,264.998 455.354,267.850 461.654,270.703 467.953,273.555 474.252,276.407 480.551,279.259 486.850,282.112 493.150,284.964 499.449,287.816 505.748,290.668 512.047,293.521 518.346,296.373 524.646,299.225 530.945,302.077 537.244,304.930 543.543,307.782 549.843,310.634 556.142,313.486 562.441,316.339 568.740,319.191 575.039,322.043 581.339,324.895 587.638,327.748 593.937,330.600 600.236,333.452 606.535,336.304 612.835,339.156 619.134,342.009 625.433,344.861 631.732,347.713 638.031,350.565 644.331,353.418 650.630,356.270 656.929,359.122 663.228,361.974 669.528,364.827 675.827,367.679 682.126,370.531 688.425,373.383 694.724,376.236 701.024,379.088 707.323,381.940 713.622,384.792 719.921,387.645 726.220,390.497 732.520,393.349 738.819,396.201 745.118,399.054 751.417,401.906 757.717,404.758 764.016,407.610 770.315,410.463 776.614,413.315 782.913,416.167 789.213,419.019 795.512,421.872 801.811,424.724 808.110,427.576 814.409,430.428 820.709,433.280 827.008,436.133 833.307,438.985 839.606,441.837 845.906,444.689 852.205,447.542 858.504,450.394 864.803,453.246 871.102,456.098 877.402,458.951 883.701,461.803 890.000,464.655 "/>
<polyline fill="none" stroke="#4E79A7" stroke-width="2.200" stroke-opacity="0.900" stroke-linejoin="round" stroke-linecap="round" points="90.000,102.420 90.000,101.730 90.000,101.730 90.000,101.730 90.000,101.730 148.496,108.802 148.496,108.802 148.496,108.802 190.000,122.765 190.000,123.262 190.000,123.262 222.193,126.220 222.193,126.220 248.496,132.745 248.496,132.745 270.735,137.866 290.000,143.488 290.000,142.348 306.993,143.736 322.193,149.314 335.943,151.990 348.496,157.462 360.044,158.364 370.735,161.745 390.000,168.210 398.746,168.540 414.793,172.442 422.193,174.590 435.943,178.463 448.496,181.051 460.044,184.872 475.798,190.037 490.000,197.458 498.746,198.226 514.793,199.381 525.755,202.500 539.185,205.436 551.471,208.652 562.792,211.431 575.798,216.603 590.000,223.716 600.852,225.349 614.793,227.268 625.755,230.684 639.185,236.159 651.471,240.201 664.147,244.017 677.036,246.843 690.000,257.190 701.894,254.549 714.793,258.656 726.632,261.693 739.985,266.310 752.205,269.439 764.819,273.062 777.036,280.126 790.000,287.892 802.412,287.114 814.793,289.872 827.069,292.241 839.985,297.434 852.205,303.088 864.819,305.254 877.344,310.476 890.000,320.102 "/>
<circle cx="90.000" cy="102.420" r="3.500" fill="#4E79A7" fill-opacity="0.950" stroke="#2f2f2f" stroke-opacity="1.000" stroke-width="1"><title>N=2, value=0.818744240424</title></circle>
<circle cx="90.000" cy="101.730" r="3.500" fill="#4E79A7" fill-opacity="0.950" stroke="#2f2f2f" stroke-opacity="1.000" stroke-width="1"><title>N=2, value=0.827446134199</title></circle>
<circle cx="90.000" cy="101.730" r="3.500" fill="#4E79A7" fill-opacity="0.950" stroke="#2f2f2f" stroke-opacity="1.000" stroke-width="1"><title>N=2, value=0.827446134199</title></circle>
<circle cx="90.000" cy="101.730" r="3.500" fill="#4E79A7" fill-opacity="0.950" stroke="#2f2f2f" stroke-opacity="1.000" stroke-width="1"><title>N=2, value=0.827446134199</title></circle>
<circle cx="90.000" cy="101.730" r="3.500" fill="#4E79A7" fill-opacity="0.950" stroke="#2f2f2f" stroke-opacity="1.000" stroke-width="1"><title>N=2, value=0.827446134199</title></circle>
<circle cx="148.496" cy="108.802" r="3.500" fill="#4E79A7" fill-opacity="0.950" stroke="#2f2f2f" stroke-opacity="1.000" stroke-width="1"><title>N=3, value=0.742537791082</title></circle>
<circle cx="148.496" cy="108.802" r="3.500" fill="#4E79A7" fill-opacity="0.950" stroke="#2f2f2f" stroke-opacity="1.000" stroke-width="1"><title>N=3, value=0.742537791082</title></circle>
<circle cx="148.496" cy="108.802" r="3.500" fill="#4E79A7" fill-opacity="0.950" stroke="#2f2f2f" stroke-opacity="1.000" stroke-width="1"><title>N=3, value=0.742537791082</title></circle>
<circle cx="190.000" cy="122.765" r="3.500" fill="#4E79A7" fill-opacity="0.950" stroke="#2f2f2f" stroke-opacity="1.000" stroke-width="1"><title>N=4, value=0.599638389934</title></circle>
<circle cx="190.000" cy="123.262" r="3.500" fill="#4E79A7" fill-opacity="0.950" stroke="#2f2f2f" stroke-opacity="1.000" stroke-width="1"><title>N=4, value=0.595100208404</title></circle>
<circle cx="190.000" cy="123.262" r="3.500" fill="#4E79A7" fill-opacity="0.950" stroke="#2f2f2f" stroke-opacity="1.000" stroke-width="1"><title>N=4, value=0.595100208404</title></circle>
<circle cx="222.193" cy="126.220" r="3.500" fill="#4E79A7" fill-opacity="0.950" stroke="#2f2f2f" stroke-opacity="1.000" stroke-width="1"><title>N=5, value=0.568753760875</title></circle>
<circle cx="222.193" cy="126.220" r="3.500" fill="#4E79A7" fill-opacity="0.950" stroke="#2f2f2f" stroke-opacity="1.000" stroke-width="1"><title>N=5, value=0.568753760875</title></circle>
<circle cx="248.496" cy="132.745" r="3.500" fill="#4E79A7" fill-opacity="0.950" stroke="#2f2f2f" stroke-opacity="1.000" stroke-width="1"><title>N=6, value=0.514685793225</title></circle>
<circle cx="248.496" cy="132.745" r="3.500" fill="#4E79A7" fill-opacity="0.950" stroke="#2f2f2f" stroke-opacity="1.000" stroke-width="1"><title>N=6, value=0.514685793225</title></circle>
<circle cx="270.735" cy="137.866" r="3.500" fill="#4E79A7" fill-opacity="0.950" stroke="#2f2f2f" stroke-opacity="1.000" stroke-width="1"><title>N=7, value=0.475880376149</title></circle>
<circle cx="290.000" cy="143.488" r="3.500" fill="#4E79A7" fill-opacity="0.950" stroke="#2f2f2f" stroke-opacity="1.000" stroke-width="1"><title>N=8, value=0.436635423645</title></circle>
<circle cx="290.000" cy="142.348" r="3.500" fill="#4E79A7" fill-opacity="0.950" stroke="#2f2f2f" stroke-opacity="1.000" stroke-width="1"><title>N=8, value=0.444321796573</title></circle>
<circle cx="306.993" cy="143.736" r="3.500" fill="#4E79A7" fill-opacity="0.950" stroke="#2f2f2f" stroke-opacity="1.000" stroke-width="1"><title>N=9, value=0.434979205593</title></circle>
<circle cx="322.193" cy="149.314" r="3.500" fill="#4E79A7" fill-opacity="0.950" stroke="#2f2f2f" stroke-opacity="1.000" stroke-width="1"><title>N=10, value=0.399377047043</title></circle>
<circle cx="335.943" cy="151.990" r="3.500" fill="#4E79A7" fill-opacity="0.950" stroke="#2f2f2f" stroke-opacity="1.000" stroke-width="1"><title>N=11, value=0.383351587851</title></circle>
<circle cx="348.496" cy="157.462" r="3.500" fill="#4E79A7" fill-opacity="0.950" stroke="#2f2f2f" stroke-opacity="1.000" stroke-width="1"><title>N=12, value=0.352545290414</title></circle>
<circle cx="360.044" cy="158.364" r="3.500" fill="#4E79A7" fill-opacity="0.950" stroke="#2f2f2f" stroke-opacity="1.000" stroke-width="1"><title>N=13, value=0.347709785136</title></circle>
<circle cx="370.735" cy="161.745" r="3.500" fill="#4E79A7" fill-opacity="0.950" stroke="#2f2f2f" stroke-opacity="1.000" stroke-width="1"><title>N=14, value=0.330171308913</title></circle>
<circle cx="390.000" cy="168.210" r="3.500" fill="#4E79A7" fill-opacity="0.950" stroke="#2f2f2f" stroke-opacity="1.000" stroke-width="1"><title>N=16, value=0.299059499332</title></circle>
<circle cx="398.746" cy="168.540" r="3.500" fill="#4E79A7" fill-opacity="0.950" stroke="#2f2f2f" stroke-opacity="1.000" stroke-width="1"><title>N=17, value=0.297555149895</title></circle>
<circle cx="414.793" cy="172.442" r="3.500" fill="#4E79A7" fill-opacity="0.950" stroke="#2f2f2f" stroke-opacity="1.000" stroke-width="1"><title>N=19, value=0.28030235203</title></circle>
<circle cx="422.193" cy="174.590" r="3.500" fill="#4E79A7" fill-opacity="0.950" stroke="#2f2f2f" stroke-opacity="1.000" stroke-width="1"><title>N=20, value=0.271232872589</title></circle>
<circle cx="435.943" cy="178.463" r="3.500" fill="#4E79A7" fill-opacity="0.950" stroke="#2f2f2f" stroke-opacity="1.000" stroke-width="1"><title>N=22, value=0.255619474673</title></circle>
<circle cx="448.496" cy="181.051" r="3.500" fill="#4E79A7" fill-opacity="0.950" stroke="#2f2f2f" stroke-opacity="1.000" stroke-width="1"><title>N=24, value=0.245691176152</title></circle>
<circle cx="460.044" cy="184.872" r="3.500" fill="#4E79A7" fill-opacity="0.950" stroke="#2f2f2f" stroke-opacity="1.000" stroke-width="1"><title>N=26, value=0.23173187542</title></circle>
<circle cx="475.798" cy="190.037" r="3.500" fill="#4E79A7" fill-opacity="0.950" stroke="#2f2f2f" stroke-opacity="1.000" stroke-width="1"><title>N=29, value=0.214116551284</title></circle>
<circle cx="490.000" cy="197.458" r="3.500" fill="#4E79A7" fill-opacity="0.950" stroke="#2f2f2f" stroke-opacity="1.000" stroke-width="1"><title>N=32, value=0.191122225519</title></circle>
<circle cx="498.746" cy="198.226" r="3.500" fill="#4E79A7" fill-opacity="0.950" stroke="#2f2f2f" stroke-opacity="1.000" stroke-width="1"><title>N=34, value=0.18888960559</title></circle>
<circle cx="514.793" cy="199.381" r="3.500" fill="#4E79A7" fill-opacity="0.950" stroke="#2f2f2f" stroke-opacity="1.000" stroke-width="1"><title>N=38, value=0.185578376523</title></circle>
<circle cx="525.755" cy="202.500" r="3.500" fill="#4E79A7" fill-opacity="0.950" stroke="#2f2f2f" stroke-opacity="1.000" stroke-width="1"><title>N=41, value=0.176926424277</title></circle>
<circle cx="539.185" cy="205.436" r="3.500" fill="#4E79A7" fill-opacity="0.950" stroke="#2f2f2f" stroke-opacity="1.000" stroke-width="1"><title>N=45, value=0.169149352712</title></circle>
<circle cx="551.471" cy="208.652" r="3.500" fill="#4E79A7" fill-opacity="0.950" stroke="#2f2f2f" stroke-opacity="1.000" stroke-width="1"><title>N=49, value=0.161023013905</title></circle>
<circle cx="562.792" cy="211.431" r="3.500" fill="#4E79A7" fill-opacity="0.950" stroke="#2f2f2f" stroke-opacity="1.000" stroke-width="1"><title>N=53, value=0.154317476527</title></circle>
<circle cx="575.798" cy="216.603" r="3.500" fill="#4E79A7" fill-opacity="0.950" stroke="#2f2f2f" stroke-opacity="1.000" stroke-width="1"><title>N=58, value=0.142569710189</title></circle>
<circle cx="590.000" cy="223.716" r="3.500" fill="#4E79A7" fill-opacity="0.950" stroke="#2f2f2f" stroke-opacity="1.000" stroke-width="1"><title>N=64, value=0.127861246992</title></circle>
<circle cx="600.852" cy="225.349" r="3.500" fill="#4E79A7" fill-opacity="0.950" stroke="#2f2f2f" stroke-opacity="1.000" stroke-width="1"><title>N=69, value=0.124705502855</title></circle>
<circle cx="614.793" cy="227.268" r="3.500" fill="#4E79A7" fill-opacity="0.950" stroke="#2f2f2f" stroke-opacity="1.000" stroke-width="1"><title>N=76, value=0.121095681266</title></circle>
<circle cx="625.755" cy="230.684" r="3.500" fill="#4E79A7" fill-opacity="0.950" stroke="#2f2f2f" stroke-opacity="1.000" stroke-width="1"><title>N=82, value=0.114924442383</title></circle>
<circle cx="639.185" cy="236.159" r="3.500" fill="#4E79A7" fill-opacity="0.950" stroke="#2f2f2f" stroke-opacity="1.000" stroke-width="1"><title>N=90, value=0.105685797861</title></circle>
<circle cx="651.471" cy="240.201" r="3.500" fill="#4E79A7" fill-opacity="0.950" stroke="#2f2f2f" stroke-opacity="1.000" stroke-width="1"><title>N=98, value=0.099343890963</title></circle>
<circle cx="664.147" cy="244.017" r="3.500" fill="#4E79A7" fill-opacity="0.950" stroke="#2f2f2f" stroke-opacity="1.000" stroke-width="1"><title>N=107, value=0.0937074342194</title></circle>
<circle cx="677.036" cy="246.843" r="3.500" fill="#4E79A7" fill-opacity="0.950" stroke="#2f2f2f" stroke-opacity="1.000" stroke-width="1"><title>N=117, value=0.0897396900803</title></circle>
<circle cx="690.000" cy="257.190" r="3.500" fill="#4E79A7" fill-opacity="0.950" stroke="#2f2f2f" stroke-opacity="1.000" stroke-width="1"><title>N=128, value=0.0765937237263</title></circle>
<circle cx="701.894" cy="254.549" r="3.500" fill="#4E79A7" fill-opacity="0.950" stroke="#2f2f2f" stroke-opacity="1.000" stroke-width="1"><title>N=139, value=0.0797542523996</title></circle>
<circle cx="714.793" cy="258.656" r="3.500" fill="#4E79A7" fill-opacity="0.950" stroke="#2f2f2f" stroke-opacity="1.000" stroke-width="1"><title>N=152, value=0.0748940580324</title></circle>
<circle cx="726.632" cy="261.693" r="3.500" fill="#4E79A7" fill-opacity="0.950" stroke="#2f2f2f" stroke-opacity="1.000" stroke-width="1"><title>N=165, value=0.0714920458084</title></circle>
<circle cx="739.985" cy="266.310" r="3.500" fill="#4E79A7" fill-opacity="0.950" stroke="#2f2f2f" stroke-opacity="1.000" stroke-width="1"><title>N=181, value=0.066614103081</title></circle>
<circle cx="752.205" cy="269.439" r="3.500" fill="#4E79A7" fill-opacity="0.950" stroke="#2f2f2f" stroke-opacity="1.000" stroke-width="1"><title>N=197, value=0.0634984364205</title></circle>
<circle cx="764.819" cy="273.062" r="3.500" fill="#4E79A7" fill-opacity="0.950" stroke="#2f2f2f" stroke-opacity="1.000" stroke-width="1"><title>N=215, value=0.0600726915108</title></circle>
<circle cx="777.036" cy="280.126" r="3.500" fill="#4E79A7" fill-opacity="0.950" stroke="#2f2f2f" stroke-opacity="1.000" stroke-width="1"><title>N=234, value=0.0539150010086</title></circle>
<circle cx="790.000" cy="287.892" r="3.500" fill="#4E79A7" fill-opacity="0.950" stroke="#2f2f2f" stroke-opacity="1.000" stroke-width="1"><title>N=256, value=0.0478720087903</title></circle>
<circle cx="802.412" cy="287.114" r="3.500" fill="#4E79A7" fill-opacity="0.950" stroke="#2f2f2f" stroke-opacity="1.000" stroke-width="1"><title>N=279, value=0.0484450553326</title></circle>
<circle cx="814.793" cy="289.872" r="3.500" fill="#4E79A7" fill-opacity="0.950" stroke="#2f2f2f" stroke-opacity="1.000" stroke-width="1"><title>N=304, value=0.0464428220405</title></circle>
<circle cx="827.069" cy="292.241" r="3.500" fill="#4E79A7" fill-opacity="0.950" stroke="#2f2f2f" stroke-opacity="1.000" stroke-width="1"><title>N=331, value=0.0447886809241</title></circle>
<circle cx="839.985" cy="297.434" r="3.500" fill="#4E79A7" fill-opacity="0.950" stroke="#2f2f2f" stroke-opacity="1.000" stroke-width="1"><title>N=362, value=0.0413658731668</title></circle>
<circle cx="852.205" cy="303.088" r="3.500" fill="#4E79A7" fill-opacity="0.950" stroke="#2f2f2f" stroke-opacity="1.000" stroke-width="1"><title>N=394, value=0.0379358243663</title></circle>
<circle cx="864.819" cy="305.254" r="3.500" fill="#4E79A7" fill-opacity="0.950" stroke="#2f2f2f" stroke-opacity="1.000" stroke-width="1"><title>N=430, value=0.0366989371051</title></circle>
<circle cx="877.344" cy="310.476" r="3.500" fill="#4E79A7" fill-opacity="0.950" stroke="#2f2f2f" stroke-opacity="1.000" stroke-width="1"><title>N=469, value=0.0338794261615</title></circle>
<circle cx="890.000" cy="320.102" r="3.500" fill="#4E79A7" fill-opacity="0.950" stroke="#2f2f2f" stroke-opacity="1.000" stroke-width="1"><title>N=512, value=0.0292372628924</title></circle>
<polyline fill="none" stroke="#E15759" stroke-width="2.200" stroke-opacity="0.900" stroke-linejoin="round" stroke-linecap="round" points="90.000,85.682 90.000,85.345 90.000,85.345 90.000,85.345 90.000,85.345 148.496,100.026 148.496,100.026 148.496,100.026 190.000,120.944 190.000,119.451 190.000,119.451 222.193,121.889 222.193,121.889 248.496,132.750 248.496,132.750 270.735,138.646 290.000,150.482 290.000,150.360 306.993,151.155 322.193,157.607 335.943,160.179 348.496,169.627 360.044,170.640 370.735,175.574 390.000,188.078 398.746,185.748 414.793,189.353 422.193,193.698 435.943,196.844 448.496,203.342 460.044,206.391 475.798,212.944 490.000,227.322 498.746,224.053 514.793,225.137 525.755,227.742 539.185,232.751 551.471,238.365 562.792,241.504 575.798,248.133 590.000,262.218 600.852,256.365 614.793,261.270 625.755,265.508 639.185,271.257 651.471,278.972 664.147,281.463 677.036,288.466 690.000,307.115 701.894,297.276 714.793,301.269 726.632,303.335 739.985,307.454 752.205,313.537 764.819,317.887 777.036,325.314 790.000,343.942 802.412,333.639 814.793,338.118 827.069,339.740 839.985,346.987 852.205,354.251 864.819,356.780 877.344,362.463 890.000,384.021 "/>
<circle cx="90.000" cy="85.682" r="3.500" fill="#E15759" fill-opacity="0.950" stroke="#2f2f2f" stroke-opacity="1.000" stroke-width="1"><title>N=2, value=1.05786843853</title></circle>
<circle cx="90.000" cy="85.345" r="3.500" fill="#E15759" fill-opacity="0.950" stroke="#2f2f2f" stroke-opacity="1.000" stroke-width="1"><title>N=2, value=1.06333691451</title></circle>
<circle cx="90.000" cy="85.345" r="3.500" fill="#E15759" fill-opacity="0.950" stroke="#2f2f2f" stroke-opacity="1.000" stroke-width="1"><title>N=2, value=1.06333691451</title></circle>
<circle cx="90.000" cy="85.345" r="3.500" fill="#E15759" fill-opacity="0.950" stroke="#2f2f2f" stroke-opacity="1.000" stroke-width="1"><title>N=2, value=1.06333691451</title></circle>
<circle cx="90.000" cy="85.345" r="3.500" fill="#E15759" fill-opacity="0.950" stroke="#2f2f2f" stroke-opacity="1.000" stroke-width="1"><title>N=2, value=1.06333691451</title></circle>
<circle cx="148.496" cy="100.026" r="3.500" fill="#E15759" fill-opacity="0.950" stroke="#2f2f2f" stroke-opacity="1.000" stroke-width="1"><title>N=3, value=0.849315544628</title></circle>
<circle cx="148.496" cy="100.026" r="3.500" fill="#E15759" fill-opacity="0.950" stroke="#2f2f2f" stroke-opacity="1.000" stroke-width="1"><title>N=3, value=0.849315544628</title></circle>
<circle cx="148.496" cy="100.026" r="3.500" fill="#E15759" fill-opacity="0.950" stroke="#2f2f2f" stroke-opacity="1.000" stroke-width="1"><title>N=3, value=0.849315544628</title></circle>
<circle cx="190.000" cy="120.944" r="3.500" fill="#E15759" fill-opacity="0.950" stroke="#2f2f2f" stroke-opacity="1.000" stroke-width="1"><title>N=4, value=0.616589914798</title></circle>
<circle cx="190.000" cy="119.451" r="3.500" fill="#E15759" fill-opacity="0.950" stroke="#2f2f2f" stroke-opacity="1.000" stroke-width="1"><title>N=4, value=0.630845710642</title></circle>
<circle cx="190.000" cy="119.451" r="3.500" fill="#E15759" fill-opacity="0.950" stroke="#2f2f2f" stroke-opacity="1.000" stroke-width="1"><title>N=4, value=0.630845710642</title></circle>
<circle cx="222.193" cy="121.889" r="3.500" fill="#E15759" fill-opacity="0.950" stroke="#2f2f2f" stroke-opacity="1.000" stroke-width="1"><title>N=5, value=0.607737276327</title></circle>
<circle cx="222.193" cy="121.889" r="3.500" fill="#E15759" fill-opacity="0.950" stroke="#2f2f2f" stroke-opacity="1.000" stroke-width="1"><title>N=5, value=0.607737276327</title></circle>
<circle cx="248.496" cy="132.750" r="3.500" fill="#E15759" fill-opacity="0.950" stroke="#2f2f2f" stroke-opacity="1.000" stroke-width="1"><title>N=6, value=0.514646984578</title></circle>
<circle cx="248.496" cy="132.750" r="3.500" fill="#E15759" fill-opacity="0.950" stroke="#2f2f2f" stroke-opacity="1.000" stroke-width="1"><title>N=6, value=0.514646984578</title></circle>
<circle cx="270.735" cy="138.646" r="3.500" fill="#E15759" fill-opacity="0.950" stroke="#2f2f2f" stroke-opacity="1.000" stroke-width="1"><title>N=7, value=0.470228919308</title></circle>
<circle cx="290.000" cy="150.482" r="3.500" fill="#E15759" fill-opacity="0.950" stroke="#2f2f2f" stroke-opacity="1.000" stroke-width="1"><title>N=8, value=0.392301345234</title></circle>
<circle cx="290.000" cy="150.360" r="3.500" fill="#E15759" fill-opacity="0.950" stroke="#2f2f2f" stroke-opacity="1.000" stroke-width="1"><title>N=8, value=0.393034775319</title></circle>
<circle cx="306.993" cy="151.155" r="3.500" fill="#E15759" fill-opacity="0.950" stroke="#2f2f2f" stroke-opacity="1.000" stroke-width="1"><title>N=9, value=0.388283016251</title></circle>
<circle cx="322.193" cy="157.607" r="3.500" fill="#E15759" fill-opacity="0.950" stroke="#2f2f2f" stroke-opacity="1.000" stroke-width="1"><title>N=10, value=0.351763502022</title></circle>
<circle cx="335.943" cy="160.179" r="3.500" fill="#E15759" fill-opacity="0.950" stroke="#2f2f2f" stroke-opacity="1.000" stroke-width="1"><title>N=11, value=0.338185436723</title></circle>
<circle cx="348.496" cy="169.627" r="3.500" fill="#E15759" fill-opacity="0.950" stroke="#2f2f2f" stroke-opacity="1.000" stroke-width="1"><title>N=12, value=0.292643726101</title></circle>
<circle cx="360.044" cy="170.640" r="3.500" fill="#E15759" fill-opacity="0.950" stroke="#2f2f2f" stroke-opacity="1.000" stroke-width="1"><title>N=13, value=0.288142108086</title></circle>
<circle cx="370.735" cy="175.574" r="3.500" fill="#E15759" fill-opacity="0.950" stroke="#2f2f2f" stroke-opacity="1.000" stroke-width="1"><title>N=14, value=0.267180451388</title></circle>
<circle cx="390.000" cy="188.078" r="3.500" fill="#E15759" fill-opacity="0.950" stroke="#2f2f2f" stroke-opacity="1.000" stroke-width="1"><title>N=16, value=0.220632720065</title></circle>
<circle cx="398.746" cy="185.748" r="3.500" fill="#E15759" fill-opacity="0.950" stroke="#2f2f2f" stroke-opacity="1.000" stroke-width="1"><title>N=17, value=0.228645829394</title></circle>
<circle cx="414.793" cy="189.353" r="3.500" fill="#E15759" fill-opacity="0.950" stroke="#2f2f2f" stroke-opacity="1.000" stroke-width="1"><title>N=19, value=0.216370075378</title></circle>
<circle cx="422.193" cy="193.698" r="3.500" fill="#E15759" fill-opacity="0.950" stroke="#2f2f2f" stroke-opacity="1.000" stroke-width="1"><title>N=20, value=0.202444531552</title></circle>
<circle cx="435.943" cy="196.844" r="3.500" fill="#E15759" fill-opacity="0.950" stroke="#2f2f2f" stroke-opacity="1.000" stroke-width="1"><title>N=22, value=0.192927595872</title></circle>
<circle cx="448.496" cy="203.342" r="3.500" fill="#E15759" fill-opacity="0.950" stroke="#2f2f2f" stroke-opacity="1.000" stroke-width="1"><title>N=24, value=0.174659466946</title></circle>
<circle cx="460.044" cy="206.391" r="3.500" fill="#E15759" fill-opacity="0.950" stroke="#2f2f2f" stroke-opacity="1.000" stroke-width="1"><title>N=26, value=0.166694290431</title></circle>
<circle cx="475.798" cy="212.944" r="3.500" fill="#E15759" fill-opacity="0.950" stroke="#2f2f2f" stroke-opacity="1.000" stroke-width="1"><title>N=29, value=0.150784389415</title></circle>
<circle cx="490.000" cy="227.322" r="3.500" fill="#E15759" fill-opacity="0.950" stroke="#2f2f2f" stroke-opacity="1.000" stroke-width="1"><title>N=32, value=0.120994450123</title></circle>
<circle cx="498.746" cy="224.053" r="3.500" fill="#E15759" fill-opacity="0.950" stroke="#2f2f2f" stroke-opacity="1.000" stroke-width="1"><title>N=34, value=0.127203000016</title></circle>
<circle cx="514.793" cy="225.137" r="3.500" fill="#E15759" fill-opacity="0.950" stroke="#2f2f2f" stroke-opacity="1.000" stroke-width="1"><title>N=38, value=0.125110022959</title></circle>
<circle cx="525.755" cy="227.742" r="3.500" fill="#E15759" fill-opacity="0.950" stroke="#2f2f2f" stroke-opacity="1.000" stroke-width="1"><title>N=41, value=0.120219008217</title></circle>
<circle cx="539.185" cy="232.751" r="3.500" fill="#E15759" fill-opacity="0.950" stroke="#2f2f2f" stroke-opacity="1.000" stroke-width="1"><title>N=45, value=0.11134556602</title></circle>
<circle cx="551.471" cy="238.365" r="3.500" fill="#E15759" fill-opacity="0.950" stroke="#2f2f2f" stroke-opacity="1.000" stroke-width="1"><title>N=49, value=0.102175560522</title></circle>
<circle cx="562.792" cy="241.504" r="3.500" fill="#E15759" fill-opacity="0.950" stroke="#2f2f2f" stroke-opacity="1.000" stroke-width="1"><title>N=53, value=0.097382702516</title></circle>
<circle cx="575.798" cy="248.133" r="3.500" fill="#E15759" fill-opacity="0.950" stroke="#2f2f2f" stroke-opacity="1.000" stroke-width="1"><title>N=58, value=0.0879850733636</title></circle>
<circle cx="590.000" cy="262.218" r="3.500" fill="#E15759" fill-opacity="0.950" stroke="#2f2f2f" stroke-opacity="1.000" stroke-width="1"><title>N=64, value=0.0709202172053</title></circle>
<circle cx="600.852" cy="256.365" r="3.500" fill="#E15759" fill-opacity="0.950" stroke="#2f2f2f" stroke-opacity="1.000" stroke-width="1"><title>N=69, value=0.0775680862283</title></circle>
<circle cx="614.793" cy="261.270" r="3.500" fill="#E15759" fill-opacity="0.950" stroke="#2f2f2f" stroke-opacity="1.000" stroke-width="1"><title>N=76, value=0.0719566930336</title></circle>
<circle cx="625.755" cy="265.508" r="3.500" fill="#E15759" fill-opacity="0.950" stroke="#2f2f2f" stroke-opacity="1.000" stroke-width="1"><title>N=82, value=0.0674366345911</title></circle>
<circle cx="639.185" cy="271.257" r="3.500" fill="#E15759" fill-opacity="0.950" stroke="#2f2f2f" stroke-opacity="1.000" stroke-width="1"><title>N=90, value=0.0617553058449</title></circle>
<circle cx="651.471" cy="278.972" r="3.500" fill="#E15759" fill-opacity="0.950" stroke="#2f2f2f" stroke-opacity="1.000" stroke-width="1"><title>N=98, value=0.0548763658014</title></circle>
<circle cx="664.147" cy="281.463" r="3.500" fill="#E15759" fill-opacity="0.950" stroke="#2f2f2f" stroke-opacity="1.000" stroke-width="1"><title>N=107, value=0.0528225211454</title></circle>
<circle cx="677.036" cy="288.466" r="3.500" fill="#E15759" fill-opacity="0.950" stroke="#2f2f2f" stroke-opacity="1.000" stroke-width="1"><title>N=117, value=0.0474530622394</title></circle>
<circle cx="690.000" cy="307.115" r="3.500" fill="#E15759" fill-opacity="0.950" stroke="#2f2f2f" stroke-opacity="1.000" stroke-width="1"><title>N=128, value=0.0356682163644</title></circle>
<circle cx="701.894" cy="297.276" r="3.500" fill="#E15759" fill-opacity="0.950" stroke="#2f2f2f" stroke-opacity="1.000" stroke-width="1"><title>N=139, value=0.0414662795105</title></circle>
<circle cx="714.793" cy="301.269" r="3.500" fill="#E15759" fill-opacity="0.950" stroke="#2f2f2f" stroke-opacity="1.000" stroke-width="1"><title>N=152, value=0.0390073860906</title></circle>
<circle cx="726.632" cy="303.335" r="3.500" fill="#E15759" fill-opacity="0.950" stroke="#2f2f2f" stroke-opacity="1.000" stroke-width="1"><title>N=165, value=0.0377929791825</title></circle>
<circle cx="739.985" cy="307.454" r="3.500" fill="#E15759" fill-opacity="0.950" stroke="#2f2f2f" stroke-opacity="1.000" stroke-width="1"><title>N=181, value=0.0354834571726</title></circle>
<circle cx="752.205" cy="313.537" r="3.500" fill="#E15759" fill-opacity="0.950" stroke="#2f2f2f" stroke-opacity="1.000" stroke-width="1"><title>N=197, value=0.0323285368291</title></circle>
<circle cx="764.819" cy="317.887" r="3.500" fill="#E15759" fill-opacity="0.950" stroke="#2f2f2f" stroke-opacity="1.000" stroke-width="1"><title>N=215, value=0.030245849733</title></circle>
<circle cx="777.036" cy="325.314" r="3.500" fill="#E15759" fill-opacity="0.950" stroke="#2f2f2f" stroke-opacity="1.000" stroke-width="1"><title>N=234, value=0.026995244517</title></circle>
<circle cx="790.000" cy="343.942" r="3.500" fill="#E15759" fill-opacity="0.950" stroke="#2f2f2f" stroke-opacity="1.000" stroke-width="1"><title>N=256, value=0.0202975018075</title></circle>
<circle cx="802.412" cy="333.639" r="3.500" fill="#E15759" fill-opacity="0.950" stroke="#2f2f2f" stroke-opacity="1.000" stroke-width="1"><title>N=279, value=0.0237651224457</title></circle>
<circle cx="814.793" cy="338.118" r="3.500" fill="#E15759" fill-opacity="0.950" stroke="#2f2f2f" stroke-opacity="1.000" stroke-width="1"><title>N=304, value=0.0221904027311</title></circle>
<circle cx="827.069" cy="339.740" r="3.500" fill="#E15759" fill-opacity="0.950" stroke="#2f2f2f" stroke-opacity="1.000" stroke-width="1"><title>N=331, value=0.0216460376951</title></circle>
<circle cx="839.985" cy="346.987" r="3.500" fill="#E15759" fill-opacity="0.950" stroke="#2f2f2f" stroke-opacity="1.000" stroke-width="1"><title>N=362, value=0.0193732217407</title></circle>
<circle cx="852.205" cy="354.251" r="3.500" fill="#E15759" fill-opacity="0.950" stroke="#2f2f2f" stroke-opacity="1.000" stroke-width="1"><title>N=394, value=0.0173342468762</title></circle>
<circle cx="864.819" cy="356.780" r="3.500" fill="#E15759" fill-opacity="0.950" stroke="#2f2f2f" stroke-opacity="1.000" stroke-width="1"><title>N=430, value=0.0166760084804</title></circle>
<circle cx="877.344" cy="362.463" r="3.500" fill="#E15759" fill-opacity="0.950" stroke="#2f2f2f" stroke-opacity="1.000" stroke-width="1"><title>N=469, value=0.0152865555294</title></circle>
<circle cx="890.000" cy="384.021" r="3.500" fill="#E15759" fill-opacity="0.950" stroke="#2f2f2f" stroke-opacity="1.000" stroke-width="1"><title>N=512, value=0.0109897804023</title></circle>
<rect x="588.000" y="67.000" width="290.000" height="92.000" rx="6" ry="6" fill="#ffffff" stroke="#d0d0d0"/>
<line x1="600.000" y1="83.000" x2="636.000" y2="83.000" stroke="#4E79A7" stroke-width="2.200" stroke-opacity="0.900" />
<circle cx="618.000" cy="83.000" r="3.000" fill="#4E79A7" fill-opacity="1.000" stroke="#2f2f2f" stroke-opacity="1.000" stroke-width="1"/>
<text x="646.000" y="87.000" font-family="Arial, Helvetica, sans-serif" font-size="12" text-anchor="start" fill="#333333">Star discrepancy</text>
<line x1="600.000" y1="102.000" x2="636.000" y2="102.000" stroke="#E15759" stroke-width="2.200" stroke-opacity="0.900" />
<circle cx="618.000" cy="102.000" r="3.000" fill="#E15759" fill-opacity="1.000" stroke="#2f2f2f" stroke-opacity="1.000" stroke-width="1"/>
<text x="646.000" y="106.000" font-family="Arial, Helvetica, sans-serif" font-size="12" text-anchor="start" fill="#333333">Generalized l2 discrepancy</text>
<line x1="600.000" y1="121.000" x2="636.000" y2="121.000" stroke="#D36C6C" stroke-width="2.000" stroke-opacity="0.900" stroke-dasharray="7 5"/>
<circle cx="618.000" cy="121.000" r="3.000" fill="#D36C6C" fill-opacity="1.000" stroke="#2f2f2f" stroke-opacity="1.000" stroke-width="1"/>
<text x="646.000" y="125.000" font-family="Arial, Helvetica, sans-serif" font-size="12" text-anchor="start" fill="#333333">N^{-1/2}</text>
<line x1="600.000" y1="140.000" x2="636.000" y2="140.000" stroke="#6CA87A" stroke-width="2.000" stroke-opacity="0.900" stroke-dasharray="7 5"/>
<circle cx="618.000" cy="140.000" r="3.000" fill="#6CA87A" fill-opacity="1.000" stroke="#2f2f2f" stroke-opacity="1.000" stroke-width="1"/>
<text x="646.000" y="144.000" font-family="Arial, Helvetica, sans-serif" font-size="12" text-anchor="start" fill="#333333">N^{-1}</text>
</svg>
